<svg version="1.0" xmlns="http://www.w3.org/2000/svg" width="300" height="225" viewBox="0 0 300 225" preserveAspectRatio="xMidYMid meet">
<g transform="translate(0,225) scale(0.1,-0.1)" fill="#3b82f6" stroke="none">
<path d="M1246 1838 c-8 -13 -59 -103 -114 -200 l-101 -178 112 -200 112 -200
231 0 232 0 111 197 c62 108 111 201 109 207 -2 7 -52 98 -112 204 l-109 192
-228 0 c-226 0 -229 0 -243 -22z m413 -2 c-5 -6 -299 -98 -316 -100 -7 0 -24
23 -38 52 l-24 52 191 0 c105 0 189 -2 187 -4z m-350 -117 c1 -4 -52 -55 -116
-115 -104 -97 -114 -104 -90 -64 15 25 57 99 94 165 l67 119 22 -49 c13 -28
23 -53 23 -56z m401 74 c1 -16 14 -95 29 -178 16 -82 28 -151 26 -153 -3 -3
-404 242 -404 248 -1 6 308 108 332 109 12 1 17 -7 17 -26z m116 -171 c88
-161 88 -153 8 -166 l-41 -7 -23 133 c-13 73 -26 145 -31 161 -16 56 8 22 87
-121z m-271 -62 c110 -67 201 -123 203 -125 1 -1 -64 -39 -145 -85 -82 -46
-176 -100 -210 -121 l-63 -38 0 250 c0 138 3 248 8 246 4 -3 97 -60 207 -127z
m-240 -115 c0 -129 -2 -235 -4 -235 -2 0 -57 55 -121 123 l-118 122 117 112
c64 62 118 112 121 113 3 0 5 -106 5 -235z m575 -32 c-12 -21 -54 -96 -93
-166 -38 -70 -71 -126 -73 -125 -1 2 14 70 34 153 l37 149 50 12 c28 6 54 12
58 13 5 0 -1 -16 -13 -36z m-160 -160 c-27 -118 -40 -157 -51 -155 -8 1 -83
19 -167 41 l-153 38 179 102 c98 56 187 108 198 116 10 8 22 15 25 15 3 0 -11
-71 -31 -157z m-507 11 l88 -91 -22 -37 c-11 -20 -22 -36 -24 -36 -3 0 -158
269 -164 285 -2 5 5 1 16 -10 10 -11 58 -61 106 -111z m267 -144 l155 -39
-177 0 c-98 -1 -178 2 -178 5 0 6 40 74 43 74 1 0 72 -18 157 -40z"/>
<path d="M780 844 c-66 -24 -90 -57 -90 -124 0 -96 71 -145 178 -124 29 6 30
9 34 64 3 57 2 59 -24 63 -27 3 -28 2 -28 -40 0 -42 -1 -43 -33 -43 -46 0 -72
30 -72 82 0 68 58 95 138 63 13 -6 17 -2 17 18 0 14 -4 28 -9 31 -14 9 -94 16
-111 10z"/>
<path d="M1184 839 c-56 -28 -50 -107 9 -129 73 -27 78 -30 75 -48 -4 -21 -67
-29 -98 -12 -18 10 -20 8 -20 -19 0 -28 2 -30 54 -36 67 -9 111 11 121 54 9
44 -8 67 -67 89 -38 14 -53 25 -53 38 0 23 53 31 85 14 18 -9 20 -8 20 14 0
14 -4 27 -9 30 -19 12 -97 15 -117 5z"/>
<path d="M1643 836 c-60 -27 -87 -103 -60 -168 30 -72 123 -99 187 -56 100 67
63 220 -56 234 -22 2 -53 -2 -71 -10z m106 -62 c30 -39 24 -102 -13 -126 -41
-28 -106 16 -106 72 0 70 78 106 119 54z"/>
<path d="M1923 836 c-45 -20 -65 -57 -65 -117 0 -89 62 -139 157 -125 42 7 45
9 45 37 0 26 -2 29 -19 19 -11 -5 -35 -10 -55 -10 -69 0 -101 86 -50 136 25
26 61 29 107 9 14 -6 17 -2 17 18 0 14 -4 28 -9 31 -23 15 -98 15 -128 2z"/>
<path d="M950 718 l0 -123 80 0 c76 0 80 1 80 23 0 20 -5 22 -55 22 -54 0 -55
0 -55 30 0 30 1 30 55 30 48 0 55 2 55 20 0 18 -7 20 -55 20 -55 0 -55 0 -55
31 l0 31 55 -4 c51 -3 55 -2 55 20 0 21 -4 22 -80 22 l-80 0 0 -122z"/>
<path d="M1348 814 c4 -23 9 -25 38 -22 l34 4 0 -101 0 -102 31 5 30 4 -3 94
-3 94 38 0 c33 0 37 3 37 25 l0 25 -104 0 -103 0 5 -26z"/>
<path d="M2100 717 l0 -124 31 5 c30 4 30 6 28 53 -2 27 0 51 3 54 3 3 21 -19
41 -49 29 -43 42 -55 69 -59 18 -2 35 -3 37 -1 2 1 -18 30 -43 63 -25 33 -46
63 -46 68 0 5 18 30 40 57 22 26 40 50 40 52 0 2 -13 4 -30 4 -23 0 -37 -10
-65 -47 -20 -27 -39 -48 -43 -48 -3 0 -5 21 -3 48 2 47 2 47 -28 47 l-31 0 0
-123z"/>
</g>
</svg>
